<svg height="156" width="134" xmlns="http://www.w3.org/2000/svg" xmlns:xlink="http://www.w3.org/1999/xlink"><linearGradient id="a" x1="0%" x2="0%" y1="100%" y2="0%"><stop offset="0" stop-color="#baecca"/><stop offset="1" stop-color="#eceda2"/></linearGradient><path d="m114.179 96.494c1.014-.168 2.514-1 4.218-2.23 8.388-6.057 13.608-15.551 14.731-25.827.994-9.108 1.199-20.27-3.475-32.485-6.649-17.377-22.396-30.936-40.563-34.925-11.147-2.447-25.448.304-29.339 11.071-2.927 8.096 1.374 16.765 4.728 24.669 3.355 7.905 5.43 18.136-.635 24.253-6.979 7.035-18.622 3.192-28.508 3.314-14.45.179-27.809 10.786-32.726 24.408-4.917 13.623-1.893 29.43 6.429 41.221 8.322 11.793 21.454 19.706 35.454 23.236 12.298 3.103 25.864 2.883 37.125-3.025 13.157-6.902 22.303-22.539 17.203-37.265-1.561-4.507-.763-9.633 2.418-13.21 3.788-4.262 7.809-2.363 12.94-3.205" fill="url(#a)" fill-rule="evenodd"/></svg>