<svg id="shape20.svg" xmlns="http://www.w3.org/2000/svg" xmlns:xlink="http://www.w3.org/1999/xlink" width="415.844" height="688.4" viewBox="0 0 415.844 688.4">
  <defs>
    <style>
      .cls-1, .cls-2 {
        fill-rule: evenodd;
      }

      .cls-1 {
        fill: url(#linear-gradient);
      }

      .cls-2 {
        fill: none;
        stroke: #cfccc7;
        stroke-width: 2px;
        opacity: 0.7;
      }
    </style>
    <linearGradient id="linear-gradient" x1="644.781" y1="1959.12" x2="644.781" y2="1279" gradientUnits="userSpaceOnUse">
      <stop offset="0" stop-color="#ccf4f4"/>
      <stop offset="1" stop-color="#fefcdd"/>
    </linearGradient>
  </defs>
  <path id="_5" data-name="5" class="cls-1" d="M385.744,1680.38c10.627,20.24,33.107,44.52,58,55.84,30.337,13.79,61.978-18.02,95.18-20.95,25.5-2.26,49.837,13.45,65.169,33.92s23.452,45.27,31.962,69.38c11.031,31.25,23.389,62.58,43.537,88.89s49.237,47.36,82.184,51.07c36.9,4.17,72.9-13.56,102.742-35.64,18.24-13.49,35.971-30.09,41.82-52,11.494-43.05-26.295-83.1-33.738-127.03-9.121-53.79,27.714-103.37,43.435-155.62,22.911-76.17-.98-161.11-48.715-224.76-26.941-35.92-62.653-67.15-105.868-79.44s-94.447-2.3-123.425,32.02c-28.812,34.12-30.483,82.49-38.126,126.46s-29.489,93.19-73.178,102.52c-26.195,5.58-52.7-5.11-78.885-10.75s-58.319-3.91-73.351,18.25c-6.759,9.95-8.719,22.36-9.443,34.37-2.273,37.63,10.528,74.08,20.7,93.47" transform="translate(-334.156 -1270.72)"/>
  <path id="kei" class="cls-2" d="M356.149,1673.1c10.626,20.24,33.106,44.52,58,55.84,30.337,13.79,61.978-18.02,95.18-20.96,25.5-2.25,49.837,13.46,65.169,33.93s23.452,45.27,31.962,69.38c11.03,31.24,23.388,62.58,43.537,88.89s49.237,47.35,82.184,51.07c36.9,4.17,72.9-13.56,102.742-35.64,18.24-13.49,35.97-30.09,41.819-52,11.494-43.05-26.294-83.1-33.737-127.03-9.121-53.79,27.714-103.37,43.435-155.63,22.911-76.17-.98-161.1-48.715-224.75-26.941-35.92-62.653-67.16-105.869-79.44s-94.446-2.3-123.425,32.02c-28.811,34.12-30.482,82.49-38.126,126.46s-29.488,93.19-73.177,102.51c-26.195,5.59-52.7-5.1-78.885-10.74s-58.319-3.91-73.351,18.24c-6.759,9.96-8.719,22.37-9.443,34.38-2.273,37.63,10.527,74.08,20.7,93.47" transform="translate(-334.156 -1270.72)"/>
</svg>
