<svg xmlns="http://www.w3.org/2000/svg" xmlns:xlink="http://www.w3.org/1999/xlink" width="484.031" height="442" viewBox="0 0 484.031 442">
  <defs>
    <style>
      .cls-1 {
        fill-rule: evenodd;
        fill: url(#linear-gradient);
      }
    </style>
    <linearGradient id="linear-gradient" x1="282.015" y1="1679" x2="282.015" y2="1237" gradientUnits="userSpaceOnUse">
      <stop offset="0" stop-color="#fec0da"/>
      <stop offset="1" stop-color="#fefcdd"/>
    </linearGradient>
  </defs>
  <path id="shape16.svg" class="cls-1" d="M451.664,1363.15c-19.718-30.84-42.177-59.7-71.022-81.91-57.692-44.43-138.7-56.6-206.922-31.09-21.931,8.2-42.37,19.91-62.259,32.27C79.2,1302.46,44.5,1327.19,40.5,1368.11c-2.644,27.06,5.636,53.65,20.145,76.34a156.016,156.016,0,0,0,26.332,31.14c21.728,19.76,47.226,28.97,74.095,35.32,15.053,3.56,30.537,6.22,46.031,9.34,31.415,6.33,62.038,17.44,82.479,43.25a129.507,129.507,0,0,1,7.559,10.66c6.234,9.75,11.369,20.22,16.5,30.67s10.258,20.91,16.473,30.63a110.739,110.739,0,0,0,17.817,21.8c69.629,64.61,165.79-28.57,175-100.34,6.773-52.77-19-103.76-45.238-150.04-8.328-14.69-16.886-29.42-26.031-43.73" transform="translate(-40 -1237)"/>
</svg>
