<svg height="889" width="399" xmlns="http://www.w3.org/2000/svg" xmlns:xlink="http://www.w3.org/1999/xlink"><linearGradient id="a" x1="0%" x2="0%" y1="100%" y2="0%"><stop offset="0" stop-color="#fefcdd"/><stop offset="1" stop-color="#fec0da"/></linearGradient><path d="m1.74 237.21c-5.082 37.103 2.14 77.067 20.43 109.918 17.691 31.774 48.003 48.314 68.674 76.809 23.344 32.178 27.486 74.125 22.022 114.021-.935 6.82-2.151 13.586-3.599 20.227-9.916 45.487-29.433 88.411-39.878 133.78-1.549 6.732-2.789 13.485-3.713 20.232-1.42 10.364-2.092 20.711-1.985 30.925.62 58.717 26.992 113.057 84.991 141.497 26.162 12.83 50.803-6.965 71.964-23.558 46.098-36.145 76.789-89.108 98.707-142.565 32.538-79.356 50.032-164.01 61.681-249.062.87-6.348 1.708-12.71 2.516-19.061 15.13-118.893 20.505-239.605 6.042-358.581-2.231-18.351-5.11-37.171-14.447-53.126-42.18-72.077-136.272-30.175-176.247 20.925-13.539 17.307-24.212 37.889-42.867 49.495-18.815 11.71-42.274 12.102-63.622 18.051-54.603 15.219-83.817 60.049-90.669 110.073" fill="url(#a)" fill-rule="evenodd"/></svg>