<svg height="517" width="579" xmlns="http://www.w3.org/2000/svg" xmlns:xlink="http://www.w3.org/1999/xlink"><linearGradient id="a" x1="0%" x2="0%" y1="100%" y2="0%"><stop offset="0" stop-color="#ccf4f4"/><stop offset="1" stop-color="#fefcdd"/></linearGradient><path d="m212.76 43.713c40.76-14.036 82.538-25.215 125.454-27.59 17.773-.983 36.086-.35 52.575 6.362 35.337 14.384 54.049 52.357 69.097 87.427 28.339 66.046 54.733 132.925 79.14 200.52 11.157 30.901 21.441 62.114 32.788 92.937 7.597 20.632 8.531 33.616-6.573 51.26-19.267 22.501-48.196 41.545-79.075 52.178-4.582 1.579-9.203 2.97-13.846 4.161-16.766 4.304-33.765 5.982-49.813 4.269-14.787-1.576-29.49-6.968-40.373-17.112-51.64-48.139 1.93-133.413-55.28-182.16-25.4-21.643-53.84-23.407-82.666-13.48-4.567 1.572-9.143 3.437-13.719 5.565-28.351 13.179-54.207 29.498-83.103 39.448-11.683 4.024-23.859 7.005-36.903 8.317-42.508 4.278-89.856-16.683-92.355-64.492-1.184-22.639 8.553-45.032 23.731-61.864 15.439-17.117 34.206-29.411 43.037-51.534 9.648-24.167 9.458-51.628 23.315-74.233 15.562-25.388 45.068-38.068 72.939-48.541 10.473-3.936 21.02-7.785 31.63-11.438" fill="url(#a)" fill-rule="evenodd"/><path d="m196.077 29.697c40.76-14.036 82.538-25.215 125.455-27.589 17.772-.984 36.086-.352 52.574 6.361 35.337 14.385 54.049 52.357 69.097 87.427 28.339 66.046 54.733 132.924 79.141 200.522 11.157 30.899 21.44 62.112 32.788 92.935 7.596 20.632 8.531 33.617-6.574 51.26-19.267 22.501-48.196 41.546-79.075 52.18-4.582 1.577-9.203 2.969-13.846 4.161-16.765 4.302-33.765 5.979-49.812 4.268-14.787-1.577-29.491-6.969-40.373-17.114-51.64-48.138 1.929-133.412-55.28-182.159-25.4-21.643-53.841-23.407-82.666-13.481-4.568 1.573-9.143 3.439-13.72 5.566-28.351 13.179-54.207 29.498-83.103 39.448-11.682 4.024-23.859 7.005-36.902 8.318-42.509 4.278-89.856-16.685-92.356-64.492-1.183-22.638 8.553-45.033 23.731-61.863 15.44-17.119 34.206-29.412 43.038-51.536 9.647-24.167 9.458-51.628 23.314-74.233 15.563-25.389 45.068-38.068 72.939-48.541 10.474-3.936 21.02-7.785 31.63-11.438" fill="none" opacity=".502" stroke="#cfccc7" stroke-width="2"/></svg>