<svg height="747" width="348" xmlns="http://www.w3.org/2000/svg" xmlns:xlink="http://www.w3.org/1999/xlink"><linearGradient id="a" x1="0%" x2="0%" y1="100%" y2="0%"><stop offset="0" stop-color="#fefcdd"/><stop offset="1" stop-color="#fec0da"/></linearGradient><path d="m347.12 504.495c-1.721-30.923-13.88-62.228-33.905-86.016-19.369-23.008-46.583-31.66-67.855-51.536-24.022-22.445-33.994-55.847-35.844-89.097-.316-5.684-.395-11.368-.266-16.988.883-38.491 9.964-76.413 11.295-114.891.197-5.71.14-11.387-.173-17.01-.481-8.638-1.566-17.144-3.262-25.419-9.755-47.571-39.727-87.531-91.294-101.481-23.261-6.293-40.147 13.659-54.712 30.465-31.728 36.607-48.299 84.441-57.67 131.293-13.912 69.551-14.774 141.033-10.83 211.917.294 5.291.616 10.588.96 15.87 6.451 98.907 21.108 197.752 51.597 292.062 4.702 14.547 10.005 29.372 20.099 40.854 45.6 51.869 115.386 3.025 139.787-44.759 8.264-16.184 13.686-34.575 27.002-46.936 13.43-12.471 32.413-16.486 48.806-24.68 41.932-20.958 58.585-61.956 56.265-103.648" fill="url(#a)" fill-rule="evenodd"/></svg>