<svg height="385" width="430" xmlns="http://www.w3.org/2000/svg" xmlns:xlink="http://www.w3.org/1999/xlink"><linearGradient id="a" x1="0%" x2="0%" y1="100%" y2="0%"><stop offset="0" stop-color="#ccf4f4"/><stop offset="1" stop-color="#fefcdd"/></linearGradient><path d="m125.144 27.26c-11.375 9.58-23.657 27.254-27.369 44.647-4.521 21.2 20.105 36.856 26.61 57.537 4.996 15.883-1.584 33.539-12.444 46.139-10.859 12.603-25.482 21.224-39.611 29.999-18.305 11.373-36.484 23.601-50.381 40.077-13.896 16.474-23.204 37.895-20.963 59.345 2.51 24.021 18.804 44.413 37 60.286 11.117 9.703 24.141 18.645 38.875 19.301 28.955 1.285 49.114-28.315 75.982-39.183 32.899-13.309 69.538 3.164 104.931 5.848 51.59 3.911 102.206-23.133 135.968-62.351 19.055-22.134 33.908-49.185 35.676-78.354 1.764-29.173-11.738-60.319-37.588-73.932-25.701-13.535-56.661-7.838-85.663-6.549s-63.32-5.712-75.347-32.162c-7.208-15.861-4.119-34.193-4.198-51.614-.079-17.42-5.665-37.593-21.839-44.047-7.268-2.902-15.426-2.414-23.157-1.196-24.222 3.815-45.59 17.04-56.482 26.209" fill="url(#a)" fill-rule="evenodd"/></svg>