<svg id="shape17.svg" xmlns="http://www.w3.org/2000/svg" xmlns:xlink="http://www.w3.org/1999/xlink" width="319.94" height="470.401" viewBox="0 0 319.94 470.401">
  <defs>
    <style>
      .cls-1, .cls-2 {
        fill-rule: evenodd;
      }

      .cls-1 {
        fill: url(#linear-gradient);
      }

      .cls-2 {
        fill: none;
        stroke: #cfccc7;
        stroke-width: 1px;
        opacity: 0.7;
      }
    </style>
    <linearGradient id="linear-gradient" x1="1572.2" y1="1278.62" x2="1572.2" y2="813.719" gradientUnits="userSpaceOnUse">
      <stop offset="0" stop-color="#ccf4f4"/>
      <stop offset="1" stop-color="#fefcdd"/>
    </linearGradient>
  </defs>
  <path id="_5" data-name="5" class="cls-1" d="M1395.12,1088.07c7.27,13.84,22.63,30.44,39.65,38.18,20.74,9.42,42.37-12.32,65.07-14.33,17.43-1.54,34.06,9.2,44.54,23.19s16.04,30.95,21.85,47.43c7.54,21.36,15.99,42.78,29.76,60.76s33.66,32.38,56.18,34.92c25.23,2.84,49.84-9.28,70.24-24.37,12.47-9.22,24.59-20.57,28.58-35.54,7.86-29.43-17.97-56.81-23.06-86.84-6.23-36.77,18.95-70.66,29.69-106.38,15.67-52.073-.67-110.133-33.3-153.641-18.41-24.556-42.83-45.908-72.37-54.308s-64.56-1.571-84.37,21.889c-19.69,23.323-20.84,56.389-26.06,86.448s-20.16,63.7-50.02,70.077c-17.91,3.817-36.03-3.492-53.93-7.344s-39.87-2.672-50.14,12.469c-4.62,6.81-5.96,15.29-6.46,23.5-1.55,25.72,7.2,50.64,14.15,63.89" transform="translate(-1360.06 -808.219)"/>
  <path id="kei" class="cls-2" d="M1374.89,1083.09c7.27,13.84,22.63,30.44,39.65,38.18,20.74,9.42,42.37-12.32,65.06-14.33,17.43-1.54,34.07,9.2,44.55,23.19s16.03,30.95,21.85,47.43c7.54,21.36,15.99,42.78,29.76,60.76s33.66,32.38,56.18,34.92c25.23,2.85,49.84-9.27,70.24-24.37,12.47-9.22,24.59-20.57,28.58-35.54,7.86-29.43-17.97-56.81-23.06-86.84-6.23-36.77,18.95-70.66,29.69-106.38,15.66-52.071-.67-110.131-33.3-153.639-18.41-24.555-42.83-45.908-72.37-54.308s-64.56-1.571-84.37,21.889c-19.7,23.323-20.84,56.389-26.06,86.448s-20.16,63.7-50.03,70.077c-17.9,3.817-36.02-3.492-53.92-7.344s-39.87-2.672-50.14,12.472c-4.62,6.8-5.96,15.285-6.46,23.5-1.55,25.73,7.2,50.65,14.15,63.89" transform="translate(-1360.06 -808.219)"/>
</svg>
