<svg height="567" width="556" xmlns="http://www.w3.org/2000/svg" xmlns:xlink="http://www.w3.org/1999/xlink"><linearGradient id="a" x1="0%" x2="0%" y1="100%" y2="0%"><stop offset="0" stop-color="#fefcdd"/><stop offset="1" stop-color="#ccf4f4"/></linearGradient><path d="m456.517 548.548c88.169-31.701-17.926-156.338 27.133-201.456 189.145-189.368-45.942-152.16-118.467-193.63-70.624-40.385-35.934-194.92-171.821-142.731-74.414 28.585-111.709 89.901-154.726 157-43.02 67.094-53.11 158.538-11.033 225.845 26.045 41.66 77.404 72.192 124.441 57.366 16.501-5.201 31.837-15.613 49.115-15.822 28.242-.333 48.754 25.868 62.621 50.383 13.857 24.51 50.541 67.072 77.59 75.03 57.812 17.014 98.524-6.006 115.147-11.985" fill="url(#a)" fill-rule="evenodd"/></svg>