<svg height="410" width="790" xmlns="http://www.w3.org/2000/svg" xmlns:xlink="http://www.w3.org/1999/xlink"><linearGradient id="a" x1="0%" x2="0%" y1="100%" y2="0%"><stop offset="0" stop-color="#fec0da"/><stop offset="1" stop-color="#fefcdd"/></linearGradient><path d="m291.675 407.025c32.444-6.586 63.684-24.273 85.76-49.121 21.351-24.033 26.309-54.154 44.054-79.717 20.039-28.869 53.834-44.566 88.719-51.647 5.964-1.211 11.965-2.171 17.929-2.9 40.85-4.998 82.364-1.238 123.27-5.762 6.069-.67 12.066-1.605 17.965-2.803 9.063-1.84 17.893-4.298 26.384-7.369 48.817-17.649 86.466-55.512 93.273-112.208 3.072-25.575-20.637-40.361-40.657-53.177-43.612-27.92-96.763-38.075-147.766-40.766-75.713-3.996-151.458 6.109-225.828 21.206-5.551 1.126-11.105 2.284-16.64 3.463-103.626 22.067-205.923 52.804-300.981 99.591-14.662 7.217-29.527 15.11-40.117 27.556-47.836 56.23 14.586 122.519 68.891 140.965 18.391 6.247 38.68 9.148 53.809 21.327 15.261 12.285 22.434 31.745 33.628 47.823 28.631 41.123 74.564 52.419 118.307 43.539" fill="url(#a)" fill-rule="evenodd"/></svg>