<svg height="137" width="128" xmlns="http://www.w3.org/2000/svg" xmlns:xlink="http://www.w3.org/1999/xlink"><linearGradient id="a" x1="100%" x2="0%" y1="0%" y2="0%"><stop offset="0" stop-color="#baecca"/><stop offset="1" stop-color="#eceda2"/></linearGradient><path d="m88.088.08c-27.925.318-56.381 12.081-73.22 34.288s-18.968 55.114-4.101 78.088c15.768 22.974 50.799 31.544 73.668 15.567 4.884-3.411 9.184-7.836 11.681-13.237 3.18-6.882 3.217-14.727 4.593-22.178 3.165-17.128 13.364-31.974 21.382-47.447 3.066-5.917 5.908-12.493 4.669-19.037-.883-4.669-3.777-8.738-7.138-12.107-9.713-9.735-24.046-14.022-31.534-13.937" fill="#212b4a" fill-rule="evenodd" opacity=".6"/><path d="m88.088.08c-27.925.318-56.381 12.081-73.22 34.288s-18.968 55.114-4.101 78.088c15.768 22.974 50.799 31.544 73.668 15.567 4.884-3.411 9.184-7.836 11.681-13.237 3.18-6.882 3.217-14.727 4.593-22.178 3.165-17.128 13.364-31.974 21.382-47.447 3.066-5.917 5.908-12.493 4.669-19.037-.883-4.669-3.777-8.738-7.138-12.107-9.713-9.735-24.046-14.022-31.534-13.937" fill="url(#a)"/></svg>