<svg height="440" width="732" xmlns="http://www.w3.org/2000/svg" xmlns:xlink="http://www.w3.org/1999/xlink"><linearGradient id="a" x1="0%" x2="0%" y1="100%" y2="0%"><stop offset="0" stop-color="#fec0da"/><stop offset="1" stop-color="#fefcdd"/></linearGradient><path d="m286.588 38.037c14.513-4.65 31.099-5.407 50.57-.753 37.773 9.032 68.942 31.143 109.055 35.599 35.152 3.996 70.433-1.929 103.928-12.66 3.543-1.135 7.072-2.326 10.572-3.562 19.321-6.826 38.353-15.182 57.028-24.215 10.206-4.934 33.455-28.264 44.14-31.688.701-.224 1.349-.363 1.935-.406 28.499-2.059 55.569 67.15 60.882 88.078 9.061 35.683 7.297 73.499-.702 109.446-9.632 43.283-29.886 86.539-66.505 111.606-17.286 11.833-37.279 18.997-57.126 25.707-9.157 3.095-18.322 6.114-27.535 9.065-122.732 39.32-250.375 65.404-379.118 65.302-40.526-.03-82.639-3.096-118.028-22.798-14.013-7.801-26.86-18.343-35.048-32.126-18.083-30.443-8.504-68.586 10.654-96.076 20.329-29.17 49.77-36.987 79.73-52.829 64.054-33.873 86.057-145.42 155.568-167.69" fill="url(#a)" fill-rule="evenodd"/><path d="m256.588 67.037c14.513-4.65 31.099-5.407 50.57-.752 37.773 9.03 69.841 31.141 109.055 35.599 35.152 3.995 70.433-1.93 103.928-12.661 3.543-1.135 7.072-2.326 10.572-3.562 19.321-6.826 38.353-15.181 57.028-24.214 10.206-4.935 33.455-28.267 44.14-31.689.701-.224 1.349-.363 1.935-.406 28.499-2.059 55.569 67.15 60.882 88.079 9.061 35.681 7.298 73.498-.702 109.445-9.632 43.282-29.886 86.539-66.505 111.606-17.286 11.833-37.279 18.996-57.126 25.706-9.157 3.096-18.322 6.115-27.535 9.066-122.732 39.321-250.375 65.404-379.118 65.302-40.526-.03-82.639-3.096-118.029-22.798-14.012-7.801-26.859-18.343-35.047-32.125-18.083-30.443-8.504-68.587 10.654-96.077 20.329-29.17 49.77-36.987 79.73-52.829 64.054-33.873 86.057-145.42 155.568-167.69" fill="none" opacity=".502" stroke="#cfccc7"/></svg>