<svg height="655" width="617" xmlns="http://www.w3.org/2000/svg" xmlns:xlink="http://www.w3.org/1999/xlink"><linearGradient id="a" x1="0%" x2="0%" y1="100%" y2="0%"><stop offset="0" stop-color="#fec0da"/><stop offset="1" stop-color="#fefcdd"/></linearGradient><path d="m61.257 383.735c6.624 12.149 13.5 24.143 20.477 36.008 47.904 81.474 107.367 164.476 196.378 196.084 16.727 5.94 34.261 9.902 52.005 10.383 46.196 1.249 89.925-21.003 127.395-48.085 48.592-35.121 100.907-72.755 136.581-121.696 22.609-31.017 28.404-76.518 9.785-110.668-2.277-4.175-4.914-8.176-7.934-11.965-10.606-13.306-23.624-21.443-37.938-26.614-28.888-10.433-63.058-8.781-93.326-13.151-44.027-6.36-84.128-28.979-109.951-65.533-3.672-5.198-6.967-10.57-9.97-16.078-10.303-18.898-17.164-39.383-24.029-59.874-6.865-20.49-13.734-40.99-24.053-59.916-.801-1.469-1.622-2.926-2.466-4.375-23.238-39.902-67.756-72.786-112.57-83.257-128.382-29.995-192.217 113.626-178.185 219.525 7.467 56.346 30.457 109.057 57.801 159.212" fill="url(#a)" fill-rule="evenodd"/><path d="m61.257 409.582c6.624 12.152 13.5 24.144 20.477 36.012 47.904 81.474 107.367 164.475 196.378 196.083 16.727 5.939 34.261 9.902 52.005 10.381 46.196 1.252 89.925-21.003 127.395-48.084 48.592-35.122 100.907-72.754 136.581-121.695 22.609-31.018 28.404-76.519 9.785-110.669-2.277-4.174-4.914-8.175-7.934-11.964-10.606-13.307-23.624-21.443-37.938-26.613-28.888-10.434-63.058-8.782-93.326-13.154-44.027-6.358-84.128-28.978-109.951-65.532-3.672-5.198-6.967-10.571-9.97-16.079-10.303-18.897-17.164-39.381-24.029-59.872s-13.734-40.99-24.053-59.917c-.801-1.468-1.622-2.927-2.466-4.377-23.238-39.9-67.756-72.783-112.57-83.253-128.382-29.997-192.217 113.625-178.185 219.522 7.467 56.347 30.457 109.059 57.801 159.211" fill="none" opacity=".502" stroke="#cfccc7" stroke-width="2"/></svg>