<svg xmlns="http://www.w3.org/2000/svg" xmlns:xlink="http://www.w3.org/1999/xlink" width="594.19" height="238.656" viewBox="0 0 594.19 238.656">
  <defs>
    <style>
      .cls-1 {
        fill-rule: evenodd;
        opacity: 0.64;
        fill: url(#linear-gradient);
      }
    </style>
    <linearGradient id="linear-gradient" x1="1441.375" y1="238.656" x2="1441.375" y2="-156.062" gradientUnits="userSpaceOnUse">
      <stop offset="0" stop-color="#fec0da"/>
      <stop offset="1" stop-color="#fefcdd"/>
    </linearGradient>
  </defs>
  <path id="shape13.svg" class="cls-1" d="M1365.63,233.888c29.07-8.2,56.29-26.411,74.68-50.515,17.79-23.316,20.25-51.054,34.66-75.516,16.27-27.625,45.94-44.2,77.2-53.015,5.34-1.507,10.73-2.788,16.11-3.857,36.82-7.324,74.84-6.726,111.75-13.621,5.47-1.024,10.87-2.281,16.15-3.772a170.447,170.447,0,0,0,23.5-8.5c43.21-19.376,74.89-56.378,77.23-108.418,1.05-23.475-21.52-35.314-40.61-45.612-41.57-22.434-90.61-28.061-137.19-27.041-69.15,1.512-137.37,15.853-204,34.643-4.97,1.4-9.95,2.832-14.9,4.281-92.77,27.12-183.74,62.037-267.04,111.061-12.85,7.561-25.83,15.752-34.62,27.8-39.7,54.4,21.6,110.465,72.25,123.554,17.16,4.432,35.81,5.693,50.4,15.743,14.72,10.139,22.57,27.355,33.85,41.22,28.84,35.464,71.39,42.618,110.58,31.566" transform="translate(-1085.81)"/>
</svg>
