<svg xmlns="http://www.w3.org/2000/svg" xmlns:xlink="http://www.w3.org/1999/xlink" width="290.312" height="573.03" viewBox="0 0 290.312 573.03">
  <defs>
    <style>
      .cls-1 {
        fill-rule: evenodd;
        fill: url(#linear-gradient);
      }
    </style>
    <linearGradient id="linear-gradient" x1="290.312" y1="2327.02" x2="-256.875" y2="1834.33" gradientUnits="userSpaceOnUse">
      <stop offset="0" stop-color="#fec0da"/>
      <stop offset="1" stop-color="#fefcdd"/>
    </linearGradient>
  </defs>
  <path id="shape18.svg" class="cls-1" d="M137.78,2360.74c90.313-14.4,11.188-153.19,62.592-188.28,215.774-147.28-16.44-154.27-78.468-207.21-60.4-51.55.92-193.46-138.876-168.07-76.556,13.9-123.453,65.94-176.889,122.48s-79.714,142.41-51.578,214.6c17.416,44.68,61.129,83.28,108.932,77.6,16.77-1.99,33.367-9.19,49.976-6.26,27.145,4.81,42.062,33.66,50.911,59.69s36.3,73.5,60.793,86.04c52.356,26.81,95.58,12.13,112.607,9.41" transform="translate(0 -1794.16)"/>
</svg>
