<svg height="655" width="617" xmlns="http://www.w3.org/2000/svg" xmlns:xlink="http://www.w3.org/1999/xlink"><linearGradient id="a" x1="0%" x2="0%" y1="100%" y2="0%"><stop offset="0" stop-color="#fec0da"/><stop offset="1" stop-color="#fefcdd"/></linearGradient><path d="m554.743 383.734c-6.624 12.15-13.5 24.144-20.477 36.01-47.904 81.473-107.367 164.476-196.378 196.083-16.727 5.939-34.262 9.902-52.005 10.383-46.196 1.249-89.925-21.004-127.395-48.086-48.592-35.12-100.907-72.753-136.581-121.695-22.609-31.016-28.404-76.519-9.785-110.668 2.277-4.175 4.914-8.176 7.934-11.965 10.606-13.307 23.623-21.443 37.938-26.613 28.888-10.434 63.058-8.781 93.326-13.152 44.027-6.359 84.128-28.979 109.951-65.532 3.672-5.2 6.967-10.572 9.97-16.08 10.303-18.898 17.164-39.382 24.029-59.873 6.865-20.49 13.734-40.99 24.053-59.915.801-1.47 1.622-2.928 2.466-4.377 23.238-39.901 67.756-72.784 112.57-83.256 128.382-29.995 192.217 113.627 178.185 219.525-7.467 56.346-30.457 109.058-57.801 159.211" fill="url(#a)" fill-rule="evenodd"/><path d="m554.743 409.583c-6.624 12.151-13.5 24.143-20.477 36.01-47.904 81.475-107.367 164.477-196.378 196.083-16.727 5.941-34.262 9.903-52.005 10.382-46.196 1.252-89.925-21.002-127.395-48.085-48.592-35.121-100.907-72.752-136.581-121.693-22.609-31.018-28.404-76.521-9.785-110.669 2.277-4.176 4.914-8.177 7.934-11.964 10.606-13.308 23.623-21.445 37.938-26.614 28.888-10.434 63.058-8.782 93.326-13.154 44.027-6.357 84.128-28.978 109.951-65.532 3.672-5.198 6.967-10.572 9.97-16.078 10.303-18.899 17.164-39.383 24.029-59.874 6.865-20.49 13.734-40.988 24.053-59.916.801-1.468 1.622-2.927 2.466-4.376 23.238-39.9 67.756-72.783 112.57-83.255 128.382-29.996 192.217 113.625 178.185 219.523-7.467 56.347-30.457 109.058-57.801 159.212" fill="none" opacity=".502" stroke="#cfccc7" stroke-width="2"/></svg>