<svg id="shape19.svg" xmlns="http://www.w3.org/2000/svg" xmlns:xlink="http://www.w3.org/1999/xlink" width="452.72" height="584.91" viewBox="0 0 452.72 584.91">
  <defs>
    <style>
      .cls-1, .cls-2 {
        fill-rule: evenodd;
      }

      .cls-1 {
        fill: url(#linear-gradient);
      }

      .cls-2 {
        fill: none;
        stroke: #cfccc7;
        stroke-width: 1px;
        opacity: 0.5;
      }
    </style>
    <linearGradient id="linear-gradient" x1="1558.36" y1="3597.97" x2="1558.36" y2="3038.25" gradientUnits="userSpaceOnUse">
      <stop offset="0" stop-color="#ccf4f4"/>
      <stop offset="1" stop-color="#fefcdd"/>
    </linearGradient>
  </defs>
  <path id="シェイプ_1" data-name="シェイプ 1" class="cls-1" d="M1769.38,3430.46c-9.4,9.93-19,19.64-28.67,29.21-66.39,65.7-144.22,129.93-237.32,137.61-17.49,1.44-35.26.79-52.35-3.24-44.49-10.48-80.69-42.79-109.68-78.14-37.6-45.83-78.12-95-99.88-150.76-13.78-35.34-7.83-80.26,18.6-108.17a82.266,82.266,0,0,1,10.6-9.42c13.51-10.02,28.01-14.5,43-15.82,30.27-2.66,62.52,7.56,92.57,11.04,43.71,5.06,87.77-6.4,121.7-34.78a162.2,162.2,0,0,0,13.59-12.84c14.63-15.44,26.36-33.27,38.1-51.1s23.49-35.68,38.14-51.14c1.13-1.2,2.29-2.39,3.46-3.56,32.3-32.23,83.18-52.38,128.68-51.04,130.34,3.82,155.11,157.12,114.95,254.71-21.37,51.93-56.67,96.46-95.49,137.44" transform="translate(-1227.28 -3038.25)"/>
  <path id="kei" class="cls-2" d="M1762.85,3455.15c-9.4,9.93-19,19.64-28.67,29.21-66.39,65.7-144.21,129.93-237.32,137.61-17.49,1.44-35.26.79-52.35-3.24-44.49-10.49-80.69-42.8-109.68-78.14-37.6-45.83-78.12-95-99.88-150.76-13.78-35.34-7.83-80.26,18.6-108.17a80.962,80.962,0,0,1,10.61-9.42c13.5-10.03,28-14.51,43-15.82,30.26-2.66,62.52,7.56,92.56,11.04,43.71,5.06,87.77-6.4,121.7-34.79a160.468,160.468,0,0,0,13.59-12.83c14.63-15.44,26.36-33.27,38.1-51.11s23.49-35.67,38.14-51.13c1.13-1.21,2.29-2.39,3.46-3.56,32.3-32.23,83.18-52.38,128.68-51.05,130.34,3.82,155.11,157.13,114.95,254.72-21.37,51.93-56.67,96.45-95.49,137.44" transform="translate(-1227.28 -3038.25)"/>
</svg>
