<svg fill="#fff" viewBox="0 0 512 360" xmlns="http://www.w3.org/2000/svg"><path d="m467 0h-422c-24.762 0-45 20.149-45 45v270c0 24.86 20.251 45 45 45h422c24.762 0 45-20.149 45-45v-270c0-24.857-20.248-45-45-45zm-6.91 30c-14.549 14.597-185.445 186.05-192.466 193.094-5.864 5.882-17.381 5.886-23.248 0l-192.466-193.094zm-430.09 279.485v-258.97l129.065 129.485zm21.91 20.515 128.334-128.752 42.885 43.025c17.574 17.631 48.175 17.624 65.743 0l42.885-43.024 128.333 128.751zm430.09-20.515-129.065-129.485 129.065-129.485z" fill="#fff"/></svg>