<svg fill="none" height="30" viewBox="0 0 30 30" width="30" xmlns="http://www.w3.org/2000/svg"><circle cx="15" cy="15" fill="#292f4a" r="15"/><path clip-rule="evenodd" d="m22.957 18.302c-.037.851-.175 1.433-.372 1.942-.416 1.076-1.266 1.926-2.342 2.342-.507.197-1.091.334-1.942.372-.854.038-1.126.047-3.299.047s-2.445-.009-3.299-.047c-.851-.038-1.432-.175-1.942-.372-.532-.2-1.016-.516-1.417-.923-.406-.399-.722-.882-.925-1.419-.197-.506-.335-1.091-.372-1.942-.038-.853-.047-1.125-.047-3.298s.009-2.445.05-3.301c.037-.851.175-1.433.372-1.942.2-.532.516-1.016.922-1.417.401-.409.882-.722 1.42-.925.507-.197 1.091-.334 1.942-.372.854-.038 1.126-.047 3.299-.047s2.445.009 3.302.05c.851.038 1.433.175 1.942.372.532.2 1.017.516 1.417.922.41.401.722.882.925 1.42.197.506.335 1.091.373 1.941.037.854.04 1.126.04 3.299s-.009 2.445-.047 3.298zm-1.435-6.525c-.034-.778-.166-1.203-.275-1.485-.128-.346-.332-.659-.598-.919-.256-.266-.572-.469-.919-.597-.281-.11-.704-.241-1.485-.275-.842-.038-1.095-.047-3.234-.047-2.135 0-2.389.009-3.233.047-.779.034-1.204.165-1.485.275-.348.128-.66.331-.92.597-.269.257-.472.573-.6.919-.11.282-.241.704-.275 1.485-.038.842-.047 1.098-.047 3.233s.009 2.388.047 3.233c.034.778.165 1.204.275 1.486.128.346.331.658.597.918.256.266.572.469.919.598.282.109.704.24 1.486.274.841.038 1.097.047 3.233.047s2.389-.009 3.234-.047c.778-.034 1.204-.165 1.485-.274.697-.27 1.251-.823 1.52-1.52.109-.282.241-.704.275-1.485.038-.844.047-1.095.047-3.23s-.009-2.388-.047-3.233zm-2.242-.087c-.53 0-.96-.43-.96-.96 0-.531.43-.96.96-.96s.96.429.96.96c0 .53-.43.96-.96.96zm-4.275 7.425c-2.27 0-4.112-1.841-4.112-4.111s1.842-4.112 4.112-4.112 4.112 1.842 4.112 4.112-1.842 4.111-4.112 4.111zm0-6.778c-1.473 0-2.667 1.194-2.667 2.667s1.194 2.667 2.667 2.667 2.667-1.194 2.667-2.667-1.194-2.667-2.667-2.667z" fill="#fff" fill-rule="evenodd"/></svg>