<svg viewBox="0 0 483.09 118.15" xmlns="http://www.w3.org/2000/svg"><path d="m184.22 111.7c-4.76 0-6.15-4.92-6.15-7.68 0-17.21 22.59-40.56 22.59-49.63 0-4.92-6.91-9.99-10.76-9.99-12.44 0-54.85 46.25-59.15 51.01.15-14.75 43.17-60.38 43.17-72.67 0-4.46-5.68-10.29-11.52-10.29-23.35 0-89.27 102.48-96.64 102.48-.31 0-.61-.31-.61-.61 0-19.21 45.79-65.61 45.79-91.57 0-12.91-12.29-22.74-26.73-22.74-33.97-.01-84.21 38.86-84.21 68.05 0 8.45 8.6 14.9 16.44 14.9 25.35 0 60.69-38.41 60.69-45.02 0-1.08-1.54-3.53-2.15-3.53-.46 0-.61.46-.77.77-4.15 11.06-34.26 45.48-55.77 45.48-6.91 0-9.22-4.76-9.22-11.22 0-25.19 42.56-67.14 77.9-67.14 8.14 0 15.21 5.07 15.21 17.36 0 24.12-46.25 71.44-46.25 90.34 0 4.3 7.22 8.14 10.6 8.14 1.69 0 2.46-.31 3.99-2.3 14.29-18.13 72.83-100.64 92.8-100.64 2.3 0 2.77.92 2.77 2.31 0 9.53-48.24 64.84-48.24 78.51 0 3.38 5.68 8.3 8.3 8.3 1.08 0 2.77-2.3 6.15-6.3 15.21-18.13 47.94-50.86 58.54-50.86 1.08 0 1.84.92 1.84 2 0 9.53-22.74 32.73-22.74 49.63 0 9.83 7.99 14.29 13.52 14.29.92 0 1.54-.31 1.54-.77s-.46-.61-.92-.61z" fill="#0e0000"/><path d="m475.71 86.81c-1.23-5.07-4.3-7.37-4.3-12.75 0-5.68 9.99-9.68 9.99-11.98 0-2-3.38-5.53-5.53-5.53-2.76 0-10.6 6.3-10.6 12.14 0 2.61.77 4.3 1.54 6.3-3.84 4.15-6.61 7.07-6.61 7.07-.5.5-.93.94-1.18 1.31-1.87 1.66-5.33 4.62-9.06 7.17-.45.22-.83.47-1.12.74-3.42 2.23-6.95 3.99-9.59 3.99-1.38 0-2-.61-2-1.69 0-3.99 5.23-10.91 5.23-13.52 0-2.46-2.77-6.45-4.92-6.45-5.23 0-26.89 27.96-32.57 27.96-.77 0-1.38-.77-1.38-1.54 0-7.37 16.13-24.89 16.13-29.04s-3.84-8.6-6.15-8.6c-.92 0-1.23.31-1.23 1.08 0 3.77-6.14 11.08-10.87 18.57 0 0-.01.01-.02.02 0 0-19.05 17.36-25.2 17.36-2.15 0-3.84-1.23-3.84-4.92 0-6.3 2.92-14.29 2.92-14.29 14.9-13.98 39.64-41.64 39.64-52.08 0-4.46-3.53-8.45-7.99-8.45-10.18 0-34.24 33.84-40.25 61.86-.37.17-.71.52-.71.52s-17.82 16.9-26.58 16.9c-1.38 0-2.46-.77-2.46-2.61 0-6.61 17.51-26.43 17.51-29.19s-3.38-6.3-6.45-6.3c-.77 0-1.38.61-1.84 1.54-1.88 4.65-8.09 13.37-12.27 20.8-4.05 4.11-18.29 18.07-24.71 18.07-1.08 0-1.69-.61-1.69-1.69 0-6.3 9.52-12.45 9.52-17.05s-3.07-9.83-5.53-9.83c-2.77 0-20.13 12.91-20.13 12.91 0-1.69 9.37-10.45 9.37-15.67s-5.38-8.76-7.99-8.76c-3.84 0-30.42 27.04-30.42 27.04.77-2.15 9.37-14.14 9.37-15.98 0-3.99-3.07-7.99-5.23-7.99-.61 0-1.08.46-1.54 1.23-3.45 6.46-8.17 13.02-11.56 18.59-4.31 3.99-14.25 12.6-20.03 12.6-1.84 0-3.38-.92-3.38-2.92 0-4.76 6.76-9.83 6.76-11.68 0-2.46-4.15-6.45-5.53-6.45s-4.76 3.07-9.37 7.68c-7.37 7.38-18.44 17.98-21.36 17.98-1.38 0-2-.77-2-2 0-10.6 19.97-32.11 34.42-32.11 1.08 0 2.77 1.38 2.77 2.46 0 1.84-.77 2.3-.77 2.92s.92 1.54 1.38 1.54 1.23-1.54 1.23-3.99c0-3.38-5.84-8.76-11.83-8.76-13.21 0-34.11 21.2-34.11 33.49 0 4.76 5.38 8.91 8.91 8.91s14.29-11.06 21.97-18.59c0 0-.46 2.61-.46 5.53 0 5.84 4.3 9.22 9.22 9.22 5.76 0 14.69-7.16 19.96-11.9-1.26 2.46-2.04 4.63-2.04 6.36 0 3.84 3.38 6.76 4.76 6.76 1.54 0 2.61-2.92 7.07-8.3 4.46-5.53 27.5-28.88 32.27-28.88.31 0 .46.15.46.61 0 3.69-13.06 19.82-13.06 24.12 0 2 2.92 5.53 4.76 5.53.92 0 3.69-3.38 7.37-6.91 5.38-5.22 15.83-11.68 17.36-11.68.31 0 .61.31.61.61 0 2.46-10.6 12.75-10.6 19.21 0 4.76 4.76 8.6 8.14 8.6 5.54 0 17.83-11.35 23.61-17-1.22 2.54-2 4.77-2 6.4 0 4.92 4.92 8.45 7.37 8.45 9.99 0 28.73-17.98 28.73-17.98.08-.08.18-.18.29-.28-.62 3.4-.97 6.69-.97 9.81 0 6.3 3.53 9.37 7.68 9.37 6.69 0 20.58-11.82 26.09-16.76-1.81 3.36-3.06 6.65-3.06 9.54 0 5.68 5.53 9.07 8.6 9.07 5.07 0 23.2-22.89 25.66-22.89.46 0 .61.31.61.46 0 2.15-1.54 4.76-1.54 8.6 0 5.22 3.84 7.22 7.22 7.22s7.59-1.95 11.48-4.41c.65 4.08 6.93 10.55 13.92 10.55 7.38 0 14.14-6.3 14.14-13.06 0-.92-.15-1.84-.31-2.61 3.53.92 5.23 2.77 5.69 2.77.61 0 1.54-.77 1.54-1.38 0-.77-2.46-2.31-7.38-3.07zm-65.48-60.84c1.08 0 2 .61 2 2 0 9.37-23.66 36.87-35.65 48.7 3.99-15.06 25.04-50.7 33.65-50.7zm48.58 71.44c-4.92 0-8.15-2.3-8.15-3.99 0-.61.31-1.08 1.54-1.54 1.84-.61 8.45-3.53 16.29-3.99-1.08 4.92-4.61 9.53-9.68 9.53zm9.83-10.76c-4.55.32-10.35 1.51-14.31 2.52 3.6-2.85 6.12-5.29 6.12-5.29.46-.46 1.69-1.54 1.69-1.84 0-.03-.02-.07-.04-.11 1.34-1.38 3.26-3.37 5.3-5.58.77 2.15 1.38 4.61 1.38 8.45 0 .61 0 1.23-.15 1.84z" fill="#0e0000"/><path d="m370.59 44.65c-.17-.34-.48-.59-.84-.68l-6.23-1.53.56-6.17c.06-.63-.44-1.23-1.06-1.38-.47-.12-.96.05-1.28.41l-4.74 5.54-6.53-1.6c-.6-.15-1.26.24-1.52.81-.19.42-.13.91.14 1.28l3.49 4.72-4.63 5.4c-.24.28-.32.67-.27 1.03.05.37.29.71.6.91.33.22.74.27 1.12.14l6.84-2.35 3.62 6.02c.23.39.71.62 1.17.62h.08c.64-.04 1.15-.54 1.2-1.18l.59-7.76 6.91-2.37c.34-.12.65-.45.79-.78.15-.35.14-.74-.03-1.08z" fill="#e77378"/></svg>