<svg height="118" width="130" xmlns="http://www.w3.org/2000/svg"><path d="m129.123 73.954c-.088.444-.313.828-.487 1.041l-.975-.49c.136-.188.291-.47.354-.787.217-1.096-.659-1.583-1.865-1.822l-.333-.066-.639 3.221.365.072c1.079.215 2.012.664 2.502 1.437.404.624.472 1.364.346 1.999-.101.507-.294.898-.458 1.146l-1.045-.389c.139-.203.272-.457.354-.87.233-1.174-.751-1.7-1.926-1.932l-.412-.082-.369 1.857-1.063-.212.365-1.84-6.617-1.313.277-1.396 6.617 1.312.639-3.221-6.617-1.313.274-1.38 6.617 1.312.215-1.079 1.063.211-.214 1.079.254.05c1.079.215 1.965.654 2.448 1.377.356.532.5 1.221.33 2.078zm-10.073-9.007c-.219-.505-.464-1.367-.444-2.612.038-2.409 1.646-3.823 4.007-3.786s4.199 1.458 4.163 3.738c-.041 2.555-2.3 3.199-3.739 3.176-.291-.005-.517-.041-.662-.059l.087-5.499c-1.925.002-2.737 1.219-2.76 2.642-.016 1.019.152 1.636.37 2.173zm6.709-2.789c.022-1.44-1.294-2.092-2.278-2.22l-.066 4.156c.905.03 2.318-.335 2.344-1.936zm.727-15.175c.078-.632.068-1.39-.252-2.442-.77-2.537-2.851-3.713-5.466-2.919-2.646.803-3.725 2.871-2.987 5.3.268.882.575 1.448.824 1.711l3.11-.945-.644-2.12 1.083-.328 1.043 3.434-5.013 1.523c-.4-.538-1.118-1.621-1.545-3.029-.48-1.578-.472-3 .193-4.317.594-1.161 1.817-2.141 3.442-2.634 3.114-.929 6.037.515 7.099 4.012.367 1.207.39 2.231.31 2.745zm-7.543-10.673c-1.539.892-3.074 1.145-4.452.766-1.392-.371-2.711-1.55-3.772-3.384-.503-.867-.882-1.619-1.169-2.275l9.277-5.373c.541.677 1.136 1.51 1.695 2.475 1.013 1.749 1.328 3.23 1.037 4.501-.283 1.285-1.091 2.407-2.616 3.29zm.646-7.176c-.365-.629-.696-1.073-.953-1.354l-7.443 4.311c.122.341.367.796.643 1.272 1.507 2.602 3.781 3.173 6.327 1.698 2.233-1.274 2.917-3.352 1.426-5.927zm-6.775-9.307c-.992-1.109-2.033-.938-2.587-.442-.76.68-.691 1.509-.122 3.018.699 1.849.661 3.141-.532 4.209-1.254 1.122-3.17 1.164-4.885-.753-.701-.783-1.237-1.844-1.336-2.537l1.117-.522c.131.729.505 1.632 1.152 2.355.96 1.073 2.088 1.193 2.907.46.76-.68.806-1.502.246-2.977-.716-1.746-.762-3.181.383-4.206 1.266-1.132 3.145-.924 4.558.655.744.832 1.09 1.607 1.209 2.152l-1.115.476c-.093-.394-.337-1.152-.995-1.888zm-8.83 81.033c-.496.081-1.241.368-1.767.849-.764.698-.773 1.408-.336 1.885.458.502 1.008.504 2.046.08 1.377-.579 2.39-.453 3.023.239.851.932.798 2.383-.444 3.518-.585.535-1.251.837-1.748.941l-.436-1.004c.358-.065.95-.255 1.487-.747.621-.567.64-1.242.247-1.672-.436-.477-.979-.375-1.993.025-1.352.535-2.324.503-3.11-.357-.927-1.015-.794-2.451.579-3.706.633-.579 1.36-.958 1.984-1.09zm-5.188-89.358c-.702-.463-1.36-.316-1.681.17-.356.54-.125 1.041.512 1.927.849 1.18 1.055 2.13.414 3.102-.757 1.148-2.183 1.37-3.736.346-.715-.472-1.261-1.085-1.542-1.657l.894-.709c.199.461.66 1.114 1.254 1.506.864.57 1.555.405 1.911-.135.374-.567.241-1.1-.422-2.003-.899-1.194-1.025-2.207-.508-2.99.694-1.053 2.115-1.356 3.519-.43.662.437 1.118 1.009 1.34 1.465l-.867.668c-.15-.331-.48-.859-1.088-1.26zm-7.264-.592-5.027-2.228c-.75 1.773.053 2.995 1.354 3.572.931.412 1.565.499 2.145.508l-.191 1.03c-.55.004-1.439-.107-2.577-.612-2.203-.976-2.877-3.008-1.92-5.167.957-2.158 2.982-3.295 5.066-2.371 2.336 1.036 2.046 3.366 1.463 4.682-.118.266-.239.46-.313.586zm-1.666-4.382c-1.316-.584-2.43.373-2.933 1.229l3.8 1.684c.382-.821.597-2.265-.867-2.913zm-6.877-2.367-1.97-.524-1.087 4.081c-.249.938-.125 1.54.641 1.744.36.096.638.12.822.119l-.212 1.048c-.295.039-.738.005-1.269-.137-.641-.171-1.103-.511-1.332-.974-.282-.51-.244-1.22-.007-2.111l1.099-4.128-1.173-.312.279-1.048 1.173.312.483-1.814 1.44-.001-.578 2.173 1.97.525zm-9 2.879c-.072.675-.11 1.338-.07 1.879l-1.286-.137-.008-.993-.048-.005c-.5.564-1.394 1.022-2.503.904-1.576-.168-2.262-1.364-2.142-2.489.201-1.881 1.983-2.732 4.988-2.395l.017-.161c.068-1.543.015-1.82-1.577-1.989-.724-.078-1.503.067-2.088.363l-.222-.968c.688-.349 1.65-.523 2.631-.418 2.379.253 2.785 1.939 2.619 3.499zm-4.625-.851c-.098.916.467 1.416 1.191 1.493 1.013.108 1.724-.466 2.02-1.102.063-.139.113-.297.128-.442l.144-1.35c-1.54-.197-3.322-.11-3.483 1.401zm-6.695-2.661c-.024.195-.047.423-.036.665l.184 4.169-1.406.062-.237-5.381c-.041-.921-.092-1.712-.172-2.438l1.244-.054.116 1.533.065-.003c.309-1.066 1.137-1.766 2.09-1.808.162-.007.275.004.406.03l.059 1.342c-.147-.026-.293-.036-.487-.027-1.002.044-1.679.834-1.826 1.91zm-7.634 4.799c.999-.201 1.567-.498 2.045-.826l.44.951c-.447.322-1.236.745-2.457.992-2.363.478-4.088-.791-4.556-3.106s.527-4.414 2.762-4.867c2.506-.506 3.618 1.563 3.903 2.975.058.285.071.514.084.66l-5.392 1.09c.414 1.88 1.776 2.413 3.171 2.131zm.719-3.958c-.164-.891-.824-2.193-2.394-1.876-1.411.285-1.766 1.711-1.682 2.7zm-12.955-3.553 1.342-.477 3.849 10.82-1.341.477zm-2.307 12.51c.901-.475 1.362-.918 1.729-1.367l.689.788c-.338.434-.976 1.062-2.078 1.642-2.131 1.123-4.143.391-5.243-1.698-1.099-2.089-.735-4.381 1.282-5.444 2.261-1.19 3.908.482 4.579 1.756.135.257.212.472.266.609l-4.865 2.561c.925 1.687 2.382 1.816 3.641 1.153zm-.424-3.998c-.407-.808-1.406-1.872-2.822-1.127-1.274.671-1.214 2.138-.855 3.063zm-6.675 9.71c-1.867 1.445-4.062 1.119-5.527-.774-1.475-1.906-1.24-4.297.781-5.861.665-.515 1.382-.804 1.808-.888l.418 1.068c-.388.054-.919.24-1.533.715-1.42 1.099-1.375 2.742-.375 4.034 1.108 1.432 2.712 1.602 3.94.652.64-.495.933-.988 1.144-1.376l.845.695c-.175.381-.669 1.091-1.501 1.735zm-5.419 3.895c-.11.405-.481 1.186-1.196 1.957-1.605 1.731-3.824 1.769-5.579.141-1.767-1.638-1.926-4.035-.188-5.908.571-.617 1.231-1.02 1.637-1.172l.587.985c-.373.117-.867.387-1.394.956-1.221 1.316-.908 2.929.289 4.04 1.329 1.231 2.938 1.136 3.994-.002.55-.593.758-1.127.903-1.544zm-5.947 7.255-.707 1.084-.888-.444-.026.041c.276.701.278 1.706-.331 2.641-.865 1.328-2.241 1.396-3.19.778-1.585-1.033-1.534-3.007.13-5.531l-.135-.089c-.542-.353-1.615-.839-2.489.502-.397.61-.622 1.37-.624 2.025l-.962-.241c0-.771.282-1.707.82-2.534 1.307-2.005 2.993-1.601 4.307-.745l2.452 1.598c.569.37 1.143.705 1.643.915zm-2.694.136c-.096-.12-.214-.235-.336-.315l-1.138-.741c-.874 1.283-1.606 2.91-.332 3.739.772.503 1.473.227 1.87-.383.556-.853.368-1.748-.064-2.3zm-4.81 15.07c-.269.813-.717 1.5-1.197 1.92l-.917-.677c.393-.313.903-.928 1.126-1.604.324-.983-.015-1.606-.629-1.809-.645-.213-1.125.055-1.823.931-.918 1.179-1.863 1.565-2.753 1.271-1.198-.396-1.861-1.688-1.334-3.285.249-.752.682-1.341 1.064-1.675l.872.662c-.281.231-.704.688-1.832 1.379.636.798.949 1.396 1.502 1.578.615.203 1.038-.151 1.726-.997.918-1.127 1.781-1.575 2.886-1.209 1.305.431 1.892 1.749 1.309 3.515zm-7.924 7.352c.638.108 1.003-.305 1.557-1.245.739-1.253 1.526-1.825 2.674-1.629 1.356.231 2.134 1.446 1.821 3.281-.144.845-.484 1.591-.895 2.079l-1.009-.532c.341-.369.753-1.054.873-1.756.174-1.02-.255-1.586-.893-1.695-.67-.114-1.105.222-1.664 1.194-.731 1.304-1.608 1.827-2.533 1.67-1.244-.212-2.094-1.391-1.812-3.05.134-.782.474-1.429.802-1.817l.961.525c-.243.271-.593.785-.715 1.503-.141.83.258 1.374.833 1.472zm.435 5.845 2.927.047c.68.011 1.343-.011 1.879-.1l-.021 1.294-.988.097-.001.049c.608.447 1.144 1.296 1.126 2.412-.025 1.585-1.154 2.376-2.286 2.358-1.892-.03-2.9-1.728-2.836-4.752l-.162-.003c-.646-.01-1.814.149-1.839 1.75-.012.728.203 1.492.55 2.047l-.943.309c-.411-.654-.671-1.596-.655-2.583.038-2.393 1.681-2.95 3.249-2.925zm2.497 4.731c.922.015 1.369-.593 1.38-1.321.016-1.019-.62-1.676-1.28-1.913-.145-.05-.306-.085-.451-.088l-1.359-.021c-.057 1.552.19 3.319 1.71 3.343zm2.817 6.238-11.383 1.498-.186-1.411 11.383-1.498zm1.059 5.346-11.175 2.649-.329-1.385 11.176-2.649zm-8.414 6.944c.453-.175.936.033 1.122.568.165.473-.084.937-.543 1.096-.473.165-.962-.059-1.132-.547-.176-.504.079-.953.553-1.117zm9.991-1.8-7.393 2.573-.468-1.344 7.393-2.573zm-2.759 6.099 3.984-2.32.7 1.202-3.83 2.231c-1.301.756-1.807 1.688-1.229 2.68.407.699 1.242.943 1.965.803.2-.042.448-.13.672-.26l4.18-2.434.7 1.203-4.054 2.36c-1.077.626-1.583 1.557-1.038 2.494.448.769 1.389.97 2.118.808.222-.036.448-.13.658-.252l4.082-2.377.7 1.203-4.935 2.873c-.699.406-1.264.754-1.799 1.122l-.626-1.077 1.057-.691-.024-.042c-.863-.003-1.83-.282-2.481-1.4-.537-.923-.385-1.948.241-2.705l-.016-.028c-.5.01-.948-.085-1.321-.242-.543-.227-.971-.576-1.346-1.219-.521-.895-.707-2.565 1.642-3.932zm10.857 11.598c.494-.466.954-.945 1.276-1.382l.888.942-.64.759.033.035c.747-.104 1.724.13 2.49.942 1.088 1.153.831 2.507.007 3.284-1.376 1.299-3.283.786-5.347-1.425l-.118.111c-.471.444-1.196 1.372-.097 2.537.5.53 1.186.927 1.822 1.083l-.46.879c-.75-.182-1.594-.676-2.271-1.393-1.643-1.741-.854-3.286.287-4.363zm2.96 3.656c.671-.633.566-1.379.067-1.909-.699-.741-1.614-.768-2.252-.477-.139.064-.279.152-.385.252l-.988.932c1.042 1.152 2.452 2.246 3.558 1.202zm5.988 2.503-2.439 4.129c-.781 1.307-1.718 2.879-2.489 3.999l.04.027c1.021-.854 2.155-1.73 3.449-2.673l4.546-3.32.887.595-1.429 5.295c-.427 1.564-.848 2.976-1.314 4.222l.027.018c.784-1.111 1.869-2.583 2.86-3.886l2.847-3.72 1.115.749-6.706 8.629-1.491-1 1.393-5.416c.372-1.367.73-2.568 1.133-3.661l-.041-.028c-.841.761-1.83 1.538-2.999 2.409l-4.55 3.298-1.491-1.001 5.51-9.432zm65.45 1.665c.348.487.263 1.065-.198 1.393-.46.329-1.021.213-1.368-.274-.339-.474-.29-1.046.197-1.394.461-.329 1.031-.199 1.369.275zm9.006-8.091c-.237.287-.375.529-.451.698l-.864-.631c.088-.284.304-.672.654-1.096.423-.511.925-.788 1.441-.803.581-.043 1.21.288 1.921.875l3.29 2.721.773-.934.835.69-.773.935 1.446 1.196-.6 1.309-1.732-1.433-1.299 1.571-.835-.691 1.299-1.571-3.253-2.69c-.748-.618-1.347-.757-1.852-.146zm8.196-4.662c-.147-.131-.321-.279-.527-.409l-3.531-2.223.749-1.191 4.559 2.87c.78.491 1.459.9 2.101 1.246l-.663 1.054-1.327-.777-.034.055c.7.861.805 1.939.296 2.747-.086.137-.16.224-.256.317l-1.136-.716c.105-.106.196-.22.299-.385.534-.848.27-1.856-.53-2.588zm-.209-10.43c.822-1.954 2.887-2.858 5.168-1.898 2.416 1.016 3.168 3.193 2.328 5.191-.872 2.073-2.968 2.841-5.175 1.913-2.67-1.123-3.055-3.462-2.321-5.206zm6.524 2.849c.652-1.551-.497-2.824-1.869-3.401-1.581-.665-3.157-.257-3.696 1.025-.527 1.253.256 2.688 1.881 3.372 1.223.514 3.031.555 3.684-.996z" fill="#292f4a" fill-rule="evenodd"/></svg>