<svg height="396" width="712" xmlns="http://www.w3.org/2000/svg" xmlns:xlink="http://www.w3.org/1999/xlink"><linearGradient id="a" x1="0%" x2="0%" y1="100%" y2="0%"><stop offset="0" stop-color="#fec0da"/><stop offset="1" stop-color="#fefcdd"/></linearGradient><path d="m280.632 390.888c29.067-8.196 56.284-26.41 74.678-50.515 17.79-23.316 20.252-51.054 34.657-75.515 16.268-27.625 45.945-44.202 77.199-53.016 5.343-1.507 10.737-2.787 16.113-3.857 36.822-7.323 74.844-6.725 111.749-13.62 5.476-1.024 10.867-2.282 16.153-3.772 8.119-2.29 15.985-5.127 23.501-8.496 43.209-19.376 74.886-56.379 77.224-108.42 1.056-23.474-21.517-35.314-40.601-45.612-41.573-22.434-90.616-28.06-137.197-27.041-69.148 1.512-137.368 15.854-203.998 34.644-4.974 1.401-9.947 2.832-14.902 4.28-92.77 27.12-183.742 62.037-267.038 111.061-12.848 7.562-25.834 15.753-34.621 27.797-39.696 54.404 21.597 110.464 72.254 123.553 17.155 4.433 35.809 5.693 50.4 15.744 14.718 10.138 22.567 27.354 33.843 41.22 28.842 35.464 71.396 42.617 110.586 31.565" fill="url(#a)" fill-rule="evenodd"/></svg>